# Blender 5.1.0
# www.blender.org
mtllib cylinder.mtl
o Cylinder
v 0.000000 -1.500000 0.000000
v 0.000000 1.500000 0.000000
v 0.000000 -1.500000 -1.000000
v 0.000000 1.500000 -1.000000
v 0.156434 -1.500000 -0.987688
v 0.156434 1.500000 -0.987688
v 0.309017 -1.500000 -0.951057
v 0.309017 1.500000 -0.951057
v 0.453991 -1.500000 -0.891007
v 0.453991 1.500000 -0.891007
v 0.587785 -1.500000 -0.809017
v 0.587785 1.500000 -0.809017
v 0.707107 -1.500000 -0.707107
v 0.707107 1.500000 -0.707107
v 0.809017 -1.500000 -0.587785
v 0.809017 1.500000 -0.587785
v 0.891007 -1.500000 -0.453991
v 0.891007 1.500000 -0.453991
v 0.951057 -1.500000 -0.309017
v 0.951057 1.500000 -0.309017
v 0.987688 -1.500000 -0.156434
v 0.987688 1.500000 -0.156434
v 1.000000 -1.500000 0.000000
v 1.000000 1.500000 0.000000
v 0.987688 -1.500000 0.156434
v 0.987688 1.500000 0.156434
v 0.951057 -1.500000 0.309017
v 0.951057 1.500000 0.309017
v 0.891007 -1.500000 0.453991
v 0.891007 1.500000 0.453991
v 0.809017 -1.500000 0.587785
v 0.809017 1.500000 0.587785
v 0.707107 -1.500000 0.707107
v 0.707107 1.500000 0.707107
v 0.587785 -1.500000 0.809017
v 0.587785 1.500000 0.809017
v 0.453991 -1.500000 0.891007
v 0.453991 1.500000 0.891007
v 0.309017 -1.500000 0.951057
v 0.309017 1.500000 0.951057
v 0.156434 -1.500000 0.987688
v 0.156434 1.500000 0.987688
v 0.000000 -1.500000 1.000000
v 0.000000 1.500000 1.000000
v -0.156434 -1.500000 0.987688
v -0.156434 1.500000 0.987688
v -0.309017 -1.500000 0.951057
v -0.309017 1.500000 0.951057
v -0.453991 -1.500000 0.891007
v -0.453991 1.500000 0.891007
v -0.587785 -1.500000 0.809017
v -0.587785 1.500000 0.809017
v -0.707107 -1.500000 0.707107
v -0.707107 1.500000 0.707107
v -0.809017 -1.500000 0.587785
v -0.809017 1.500000 0.587785
v -0.891007 -1.500000 0.453991
v -0.891007 1.500000 0.453991
v -0.951057 -1.500000 0.309017
v -0.951057 1.500000 0.309017
v -0.987688 -1.500000 0.156434
v -0.987688 1.500000 0.156434
v -1.000000 -1.500000 0.000000
v -1.000000 1.500000 0.000000
v -0.987688 -1.500000 -0.156434
v -0.987688 1.500000 -0.156434
v -0.951057 -1.500000 -0.309017
v -0.951057 1.500000 -0.309017
v -0.891007 -1.500000 -0.453991
v -0.891007 1.500000 -0.453991
v -0.809017 -1.500000 -0.587785
v -0.809017 1.500000 -0.587785
v -0.707107 -1.500000 -0.707107
v -0.707107 1.500000 -0.707107
v -0.587785 -1.500000 -0.809017
v -0.587785 1.500000 -0.809017
v -0.453991 -1.500000 -0.891007
v -0.453991 1.500000 -0.891007
v -0.309017 -1.500000 -0.951057
v -0.309017 1.500000 -0.951057
v -0.156434 -1.500000 -0.987688
v -0.156434 1.500000 -0.987688
vn -0.0000 -1.0000 -0.0000
vn -0.0000 1.0000 -0.0000
vn 0.0785 -0.0000 -0.9969
vn 0.2334 -0.0000 -0.9724
vn 0.3827 -0.0000 -0.9239
vn 0.5225 -0.0000 -0.8526
vn 0.6494 -0.0000 -0.7604
vn 0.7604 -0.0000 -0.6494
vn 0.8526 -0.0000 -0.5225
vn 0.9239 -0.0000 -0.3827
vn 0.9724 -0.0000 -0.2334
vn 0.9969 -0.0000 -0.0785
vn 0.9969 -0.0000 0.0785
vn 0.9724 -0.0000 0.2334
vn 0.9239 -0.0000 0.3827
vn 0.8526 -0.0000 0.5225
vn 0.7604 -0.0000 0.6494
vn 0.6494 -0.0000 0.7604
vn 0.5225 -0.0000 0.8526
vn 0.3827 -0.0000 0.9239
vn 0.2334 -0.0000 0.9724
vn 0.0785 -0.0000 0.9969
vn -0.0785 -0.0000 0.9969
vn -0.2334 -0.0000 0.9724
vn -0.3827 -0.0000 0.9239
vn -0.5225 -0.0000 0.8526
vn -0.6494 -0.0000 0.7604
vn -0.7604 -0.0000 0.6494
vn -0.8526 -0.0000 0.5225
vn -0.9239 -0.0000 0.3827
vn -0.9724 -0.0000 0.2334
vn -0.9969 -0.0000 0.0785
vn -0.9969 -0.0000 -0.0785
vn -0.9724 -0.0000 -0.2334
vn -0.9239 -0.0000 -0.3827
vn -0.8526 -0.0000 -0.5225
vn -0.7604 -0.0000 -0.6494
vn -0.6494 -0.0000 -0.7604
vn -0.5225 -0.0000 -0.8526
vn -0.3827 -0.0000 -0.9239
vn -0.2334 -0.0000 -0.9724
vn -0.0785 -0.0000 -0.9969
vt 0.750000 0.250000
vt 0.750000 0.490000
vt 0.787544 0.487045
vt 0.250000 0.250000
vt 0.287544 0.487045
vt 0.250000 0.490000
vt 1.000000 0.500000
vt 1.000000 1.000000
vt 0.975000 1.000000
vt 0.975000 0.500000
vt 0.824164 0.478254
vt 0.324164 0.478254
vt 0.950000 1.000000
vt 0.950000 0.500000
vt 0.858958 0.463842
vt 0.358958 0.463842
vt 0.925000 1.000000
vt 0.925000 0.500000
vt 0.891068 0.444164
vt 0.391068 0.444164
vt 0.900000 1.000000
vt 0.900000 0.500000
vt 0.919706 0.419706
vt 0.419706 0.419706
vt 0.875000 1.000000
vt 0.875000 0.500000
vt 0.944164 0.391068
vt 0.444164 0.391068
vt 0.850000 1.000000
vt 0.850000 0.500000
vt 0.963842 0.358958
vt 0.463842 0.358958
vt 0.825000 1.000000
vt 0.825000 0.500000
vt 0.978254 0.324164
vt 0.478254 0.324164
vt 0.800000 1.000000
vt 0.800000 0.500000
vt 0.987045 0.287544
vt 0.487045 0.287544
vt 0.775000 1.000000
vt 0.775000 0.500000
vt 0.990000 0.250000
vt 0.490000 0.250000
vt 0.750000 1.000000
vt 0.750000 0.500000
vt 0.987045 0.212456
vt 0.487045 0.212456
vt 0.725000 1.000000
vt 0.725000 0.500000
vt 0.978254 0.175836
vt 0.478254 0.175836
vt 0.700000 1.000000
vt 0.700000 0.500000
vt 0.963842 0.141042
vt 0.463842 0.141042
vt 0.675000 1.000000
vt 0.675000 0.500000
vt 0.944164 0.108932
vt 0.444164 0.108932
vt 0.650000 1.000000
vt 0.650000 0.500000
vt 0.919706 0.080294
vt 0.419706 0.080294
vt 0.625000 1.000000
vt 0.625000 0.500000
vt 0.891068 0.055836
vt 0.391068 0.055836
vt 0.600000 1.000000
vt 0.600000 0.500000
vt 0.858958 0.036158
vt 0.358958 0.036158
vt 0.575000 1.000000
vt 0.575000 0.500000
vt 0.824164 0.021746
vt 0.324164 0.021746
vt 0.550000 1.000000
vt 0.550000 0.500000
vt 0.787544 0.012955
vt 0.287544 0.012955
vt 0.525000 1.000000
vt 0.525000 0.500000
vt 0.750000 0.010000
vt 0.250000 0.010000
vt 0.500000 1.000000
vt 0.500000 0.500000
vt 0.712456 0.012955
vt 0.212456 0.012955
vt 0.475000 1.000000
vt 0.475000 0.500000
vt 0.675836 0.021746
vt 0.175836 0.021746
vt 0.450000 1.000000
vt 0.450000 0.500000
vt 0.641042 0.036158
vt 0.141042 0.036158
vt 0.425000 1.000000
vt 0.425000 0.500000
vt 0.608932 0.055836
vt 0.108932 0.055836
vt 0.400000 1.000000
vt 0.400000 0.500000
vt 0.580294 0.080294
vt 0.080294 0.080294
vt 0.375000 1.000000
vt 0.375000 0.500000
vt 0.555836 0.108932
vt 0.055836 0.108932
vt 0.350000 1.000000
vt 0.350000 0.500000
vt 0.536158 0.141042
vt 0.036158 0.141042
vt 0.325000 1.000000
vt 0.325000 0.500000
vt 0.521746 0.175836
vt 0.021746 0.175836
vt 0.300000 1.000000
vt 0.300000 0.500000
vt 0.512955 0.212456
vt 0.012955 0.212456
vt 0.275000 1.000000
vt 0.275000 0.500000
vt 0.510000 0.250000
vt 0.010000 0.250000
vt 0.250000 1.000000
vt 0.250000 0.500000
vt 0.512955 0.287544
vt 0.012955 0.287544
vt 0.225000 1.000000
vt 0.225000 0.500000
vt 0.521746 0.324164
vt 0.021746 0.324164
vt 0.200000 1.000000
vt 0.200000 0.500000
vt 0.536158 0.358958
vt 0.036158 0.358958
vt 0.175000 1.000000
vt 0.175000 0.500000
vt 0.555836 0.391068
vt 0.055836 0.391068
vt 0.150000 1.000000
vt 0.150000 0.500000
vt 0.580294 0.419706
vt 0.080294 0.419706
vt 0.125000 1.000000
vt 0.125000 0.500000
vt 0.608932 0.444164
vt 0.108932 0.444164
vt 0.100000 1.000000
vt 0.100000 0.500000
vt 0.641042 0.463842
vt 0.141042 0.463842
vt 0.075000 1.000000
vt 0.075000 0.500000
vt 0.675836 0.478254
vt 0.175836 0.478254
vt 0.050000 1.000000
vt 0.050000 0.500000
vt 0.712456 0.487045
vt 0.212456 0.487045
vt 0.025000 1.000000
vt 0.025000 0.500000
vt 0.000000 1.000000
vt 0.000000 0.500000
s 0
usemtl Material.001
f 1/1/1 3/2/1 5/3/1
f 2/4/2 6/5/2 4/6/2
f 3/7/3 4/8/3 6/9/3 5/10/3
f 1/1/1 5/3/1 7/11/1
f 2/4/2 8/12/2 6/5/2
f 5/10/4 6/9/4 8/13/4 7/14/4
f 1/1/1 7/11/1 9/15/1
f 2/4/2 10/16/2 8/12/2
f 7/14/5 8/13/5 10/17/5 9/18/5
f 1/1/1 9/15/1 11/19/1
f 2/4/2 12/20/2 10/16/2
f 9/18/6 10/17/6 12/21/6 11/22/6
f 1/1/1 11/19/1 13/23/1
f 2/4/2 14/24/2 12/20/2
f 11/22/7 12/21/7 14/25/7 13/26/7
f 1/1/1 13/23/1 15/27/1
f 2/4/2 16/28/2 14/24/2
f 13/26/8 14/25/8 16/29/8 15/30/8
f 1/1/1 15/27/1 17/31/1
f 2/4/2 18/32/2 16/28/2
f 15/30/9 16/29/9 18/33/9 17/34/9
f 1/1/1 17/31/1 19/35/1
f 2/4/2 20/36/2 18/32/2
f 17/34/10 18/33/10 20/37/10 19/38/10
f 1/1/1 19/35/1 21/39/1
f 2/4/2 22/40/2 20/36/2
f 19/38/11 20/37/11 22/41/11 21/42/11
f 1/1/1 21/39/1 23/43/1
f 2/4/2 24/44/2 22/40/2
f 21/42/12 22/41/12 24/45/12 23/46/12
f 1/1/1 23/43/1 25/47/1
f 2/4/2 26/48/2 24/44/2
f 23/46/13 24/45/13 26/49/13 25/50/13
f 1/1/1 25/47/1 27/51/1
f 2/4/2 28/52/2 26/48/2
f 25/50/14 26/49/14 28/53/14 27/54/14
f 1/1/1 27/51/1 29/55/1
f 2/4/2 30/56/2 28/52/2
f 27/54/15 28/53/15 30/57/15 29/58/15
f 1/1/1 29/55/1 31/59/1
f 2/4/2 32/60/2 30/56/2
f 29/58/16 30/57/16 32/61/16 31/62/16
f 1/1/1 31/59/1 33/63/1
f 2/4/2 34/64/2 32/60/2
f 31/62/17 32/61/17 34/65/17 33/66/17
f 1/1/1 33/63/1 35/67/1
f 2/4/2 36/68/2 34/64/2
f 33/66/18 34/65/18 36/69/18 35/70/18
f 1/1/1 35/67/1 37/71/1
f 2/4/2 38/72/2 36/68/2
f 35/70/19 36/69/19 38/73/19 37/74/19
f 1/1/1 37/71/1 39/75/1
f 2/4/2 40/76/2 38/72/2
f 37/74/20 38/73/20 40/77/20 39/78/20
f 1/1/1 39/75/1 41/79/1
f 2/4/2 42/80/2 40/76/2
f 39/78/21 40/77/21 42/81/21 41/82/21
f 1/1/1 41/79/1 43/83/1
f 2/4/2 44/84/2 42/80/2
f 41/82/22 42/81/22 44/85/22 43/86/22
f 1/1/1 43/83/1 45/87/1
f 2/4/2 46/88/2 44/84/2
f 43/86/23 44/85/23 46/89/23 45/90/23
f 1/1/1 45/87/1 47/91/1
f 2/4/2 48/92/2 46/88/2
f 45/90/24 46/89/24 48/93/24 47/94/24
f 1/1/1 47/91/1 49/95/1
f 2/4/2 50/96/2 48/92/2
f 47/94/25 48/93/25 50/97/25 49/98/25
f 1/1/1 49/95/1 51/99/1
f 2/4/2 52/100/2 50/96/2
f 49/98/26 50/97/26 52/101/26 51/102/26
f 1/1/1 51/99/1 53/103/1
f 2/4/2 54/104/2 52/100/2
f 51/102/27 52/101/27 54/105/27 53/106/27
f 1/1/1 53/103/1 55/107/1
f 2/4/2 56/108/2 54/104/2
f 53/106/28 54/105/28 56/109/28 55/110/28
f 1/1/1 55/107/1 57/111/1
f 2/4/2 58/112/2 56/108/2
f 55/110/29 56/109/29 58/113/29 57/114/29
f 1/1/1 57/111/1 59/115/1
f 2/4/2 60/116/2 58/112/2
f 57/114/30 58/113/30 60/117/30 59/118/30
f 1/1/1 59/115/1 61/119/1
f 2/4/2 62/120/2 60/116/2
f 59/118/31 60/117/31 62/121/31 61/122/31
f 1/1/1 61/119/1 63/123/1
f 2/4/2 64/124/2 62/120/2
f 61/122/32 62/121/32 64/125/32 63/126/32
f 1/1/1 63/123/1 65/127/1
f 2/4/2 66/128/2 64/124/2
f 63/126/33 64/125/33 66/129/33 65/130/33
f 1/1/1 65/127/1 67/131/1
f 2/4/2 68/132/2 66/128/2
f 65/130/34 66/129/34 68/133/34 67/134/34
f 1/1/1 67/131/1 69/135/1
f 2/4/2 70/136/2 68/132/2
f 67/134/35 68/133/35 70/137/35 69/138/35
f 1/1/1 69/135/1 71/139/1
f 2/4/2 72/140/2 70/136/2
f 69/138/36 70/137/36 72/141/36 71/142/36
f 1/1/1 71/139/1 73/143/1
f 2/4/2 74/144/2 72/140/2
f 71/142/37 72/141/37 74/145/37 73/146/37
f 1/1/1 73/143/1 75/147/1
f 2/4/2 76/148/2 74/144/2
f 73/146/38 74/145/38 76/149/38 75/150/38
f 1/1/1 75/147/1 77/151/1
f 2/4/2 78/152/2 76/148/2
f 75/150/39 76/149/39 78/153/39 77/154/39
f 1/1/1 77/151/1 79/155/1
f 2/4/2 80/156/2 78/152/2
f 77/154/40 78/153/40 80/157/40 79/158/40
f 1/1/1 79/155/1 81/159/1
f 2/4/2 82/160/2 80/156/2
f 79/158/41 80/157/41 82/161/41 81/162/41
f 1/1/1 81/159/1 3/2/1
f 2/4/2 4/6/2 82/160/2
f 81/162/42 82/161/42 4/163/42 3/164/42
